<svg width="671" height="185" viewBox="0 0 671 185" fill="none" xmlns="http://www.w3.org/2000/svg">
<path fill-rule="evenodd" clip-rule="evenodd" d="M613.139 146.722C644.542 146.722 670 121.265 670 89.8612C670 58.4576 644.542 33 613.139 33C581.735 33 556.277 58.4576 556.277 89.8612C556.277 121.265 581.735 146.722 613.139 146.722ZM613.139 124.403C632.215 124.403 647.68 108.938 647.68 89.8612C647.68 70.7842 632.215 55.3193 613.139 55.3193C594.062 55.3193 578.597 70.7842 578.597 89.8612C578.597 108.938 594.062 124.403 613.139 124.403Z" stroke="black" stroke-width="2"/>
<path d="M442 146.191H479.93L487.671 125.258L470.254 89.5955L442 146.191Z" stroke="black" stroke-width="2"/>
<path d="M542.631 117.893L500.444 33L487.671 62.073L527.537 146.191H556.254L542.631 117.893Z" stroke="black" stroke-width="2"/>
<path d="M46.056 147L4.864 37.56H21.888L58.064 137.272H53.96L90.136 37.56H106.248L64.904 147H46.056ZM120.198 147V69.48H136.006V147H120.198ZM119.438 54.28V36.496H136.918V54.28H119.438ZM186.017 148.52C175.884 148.52 167.828 146.291 161.849 141.832C155.87 137.373 152.476 131.091 151.665 122.984H166.257C166.966 127.443 168.993 130.888 172.337 133.32C175.782 135.651 180.444 136.816 186.321 136.816C191.489 136.816 195.441 135.904 198.177 134.08C200.913 132.256 202.281 129.672 202.281 126.328C202.281 123.896 201.47 121.869 199.849 120.248C198.329 118.525 195.289 117.107 190.729 115.992L178.265 113.104C170.462 111.179 164.636 108.341 160.785 104.592C157.036 100.741 155.161 96.0293 155.161 90.456C155.161 83.464 157.745 77.992 162.913 74.04C168.182 69.9867 175.377 67.96 184.497 67.96C193.516 67.96 200.761 69.9867 206.233 74.04C211.806 78.0933 214.948 83.768 215.657 91.064H201.065C200.457 87.416 198.684 84.6293 195.745 82.704C192.908 80.6773 189.006 79.664 184.041 79.664C179.38 79.664 175.782 80.5253 173.249 82.248C170.817 83.8693 169.601 86.1493 169.601 89.088C169.601 91.52 170.513 93.5467 172.337 95.168C174.262 96.7893 177.404 98.1573 181.761 99.272L194.529 102.464C201.926 104.288 207.5 107.277 211.249 111.432C214.998 115.485 216.873 120.4 216.873 126.176C216.873 133.168 214.137 138.64 208.665 142.592C203.294 146.544 195.745 148.52 186.017 148.52ZM257.5 148.52C252.332 148.52 247.772 147.456 243.82 145.328C239.868 143.099 236.777 140.059 234.548 136.208C232.42 132.357 231.356 127.949 231.356 122.984V69.48H247.164V119.336C247.164 124.707 248.481 128.709 251.116 131.344C253.751 133.979 257.5 135.296 262.364 135.296C266.721 135.296 270.572 134.283 273.916 132.256C277.361 130.229 280.047 127.443 281.972 123.896C283.999 120.248 285.012 116.043 285.012 111.28L286.988 129.824C284.455 135.499 280.553 140.059 275.284 143.504C270.116 146.848 264.188 148.52 257.5 148.52ZM285.62 147V128.76H285.012V69.48H300.668V147H285.62ZM369.659 147C369.153 145.075 368.798 142.947 368.595 140.616C368.494 138.285 368.443 135.448 368.443 132.104H367.683V95.168C367.683 90.2027 366.417 86.504 363.883 84.072C361.451 81.5387 357.55 80.272 352.179 80.272C347.011 80.272 342.857 81.2853 339.715 83.312C336.675 85.3387 334.902 88.2267 334.395 91.976H319.347C320.057 84.68 323.35 78.8533 329.227 74.496C335.105 70.1387 342.958 67.96 352.787 67.96C362.921 67.96 370.521 70.3413 375.587 75.104C380.654 79.7653 383.187 86.656 383.187 95.776V132.104C383.187 134.435 383.339 136.816 383.643 139.248C383.947 141.68 384.403 144.264 385.011 147H369.659ZM342.907 148.52C335.003 148.52 328.721 146.595 324.059 142.744C319.398 138.792 317.067 133.472 317.067 126.784C317.067 119.893 319.499 114.472 324.363 110.52C329.329 106.467 336.422 103.731 345.643 102.312L371.179 98.208V109.304L348.075 112.952C342.907 113.763 339.006 115.131 336.371 117.056C333.838 118.981 332.571 121.768 332.571 125.416C332.571 128.963 333.737 131.648 336.067 133.472C338.499 135.195 341.995 136.056 346.555 136.056C352.635 136.056 357.651 134.587 361.603 131.648C365.657 128.709 367.683 125.011 367.683 120.552L369.659 131.8C367.835 137.171 364.593 141.325 359.931 144.264C355.27 147.101 349.595 148.52 342.907 148.52ZM404.604 147V37.56H420.412V147H404.604Z" fill="black"/>
</svg>
